<svg width="21" height="22" viewBox="0 0 21 22" fill="none" xmlns="http://www.w3.org/2000/svg">
<g clip-path="url(#clip0_288_8)">
<path fill-rule="evenodd" clip-rule="evenodd" d="M2.7218 2.41943H3.09269V3.9612C3.09935 4.49416 3.31979 5.00307 3.70622 5.37763C4.09265 5.7522 4.61395 5.96224 5.15712 5.96224C5.7003 5.96224 6.22159 5.7522 6.60802 5.37763C6.99446 5.00307 7.21489 4.49416 7.22156 3.9612V2.41943H8.43401V3.9612C8.44068 4.49416 8.66111 5.00307 9.04755 5.37763C9.43398 5.7522 9.95527 5.96224 10.4984 5.96224C11.0416 5.96224 11.5629 5.7522 11.9493 5.37763C12.3358 5.00307 12.5562 4.49416 12.5629 3.9612V2.41943H13.7784V3.9612C13.7851 4.49416 14.0055 5.00307 14.392 5.37763C14.7784 5.7522 15.2997 5.96224 15.8429 5.96224C16.3861 5.96224 16.9073 5.7522 17.2938 5.37763C17.6802 5.00307 17.9006 4.49416 17.9073 3.9612V2.41943H18.2782C18.6351 2.41987 18.9883 2.48931 19.3178 2.62378C19.6473 2.75825 19.9466 2.95512 20.1985 3.20313L20.2007 3.20587C20.4536 3.45292 20.6544 3.74649 20.7916 4.06978C20.9287 4.39307 20.9996 4.73974 21 5.08992V19.3292C20.9983 20.037 20.711 20.7154 20.2009 21.2159C19.6908 21.7164 18.9995 21.9983 18.2782 22H2.7218C2.36489 21.9997 2.01154 21.9303 1.68201 21.7958C1.35248 21.6613 1.05325 21.4642 0.801463 21.216L0.798976 21.2136C0.546007 20.9665 0.345216 20.6729 0.208112 20.3495C0.0710074 20.0262 0.000285617 19.6794 0 19.3292L0 5.09023C0.00164227 4.38238 0.28893 3.70399 0.799011 3.20347C1.30909 2.70295 2.00044 2.42104 2.7218 2.41943ZM5.15697 0C4.811 0.00104595 4.4795 0.13637 4.23486 0.376425C3.99022 0.61648 3.85231 0.941764 3.85125 1.28125V3.9609C3.8524 4.30036 3.99033 4.6256 4.23495 4.86563C4.47957 5.10567 4.81102 5.24102 5.15697 5.24215C5.50291 5.24102 5.83436 5.10567 6.07898 4.86563C6.3236 4.6256 6.46154 4.30036 6.46269 3.9609V1.28125C6.46162 0.941764 6.32371 0.61648 6.07907 0.376425C5.83443 0.13637 5.50294 0.00104595 5.15697 0ZM15.8427 0C15.4968 0.00104595 15.1653 0.13637 14.9206 0.376425C14.676 0.61648 14.5381 0.941764 14.537 1.28125V3.9609C14.5382 4.30036 14.6761 4.6256 14.9207 4.86563C15.1653 5.10567 15.4968 5.24102 15.8427 5.24215C16.1887 5.2411 16.5202 5.10578 16.7648 4.86572C17.0095 4.62567 17.1474 4.30038 17.1484 3.9609V1.28125C17.1474 0.941764 17.0095 0.61648 16.7648 0.376425C16.5202 0.13637 16.1887 0.00104595 15.8427 0ZM10.4998 0C10.1539 0.00104595 9.82238 0.13637 9.57774 0.376425C9.3331 0.61648 9.19519 0.941764 9.19413 1.28125V3.9609C9.19527 4.30036 9.33321 4.6256 9.57783 4.86563C9.82245 5.10567 10.1539 5.24102 10.4998 5.24215C10.8458 5.2411 11.1773 5.10578 11.422 4.86572C11.6666 4.62567 11.8045 4.30038 11.8056 3.9609V1.28125C11.8045 0.941764 11.6666 0.61648 11.422 0.376425C11.1773 0.13637 10.8458 0.00104595 10.4998 0ZM19.7331 9.04624H1.26655V19.3292C1.26679 19.7079 1.42019 20.0709 1.69305 20.3387C1.96591 20.6064 2.33592 20.7569 2.7218 20.7572H18.2782C18.6637 20.7557 19.0329 20.6047 19.3055 20.3373C19.5781 20.0698 19.7319 19.7075 19.7335 19.3292L19.7331 9.04624Z" fill="#0F9D58"/>
</g>
<defs>
<clipPath id="clip0_288_8">
<rect width="21" height="22" fill="white"/>
</clipPath>
</defs>
</svg>
