<svg width="16" height="22" viewBox="0 0 16 22" fill="none" xmlns="http://www.w3.org/2000/svg">
<path fill-rule="evenodd" clip-rule="evenodd" d="M7.55572 22C11.7286 22 15.1114 20.4829 15.1114 18.6114C15.1114 17.4677 13.8482 16.4565 11.9132 15.843C11.8 16.0486 11.692 16.2438 11.5904 16.4256C10.7381 17.9494 9.4294 19.7566 7.47397 19.7032C5.56277 19.651 4.34649 17.8512 3.56005 16.3268L3.29465 15.8131C1.30505 16.4235 0 17.4494 0 18.6114C0 20.4829 3.38281 22 7.55572 22ZM7.60179 0C11.0865 0 13.9107 2.82516 13.9107 6.30986C13.9107 8.27109 11.9748 12.3354 10.1414 15.6163C8.29397 18.9238 6.70338 18.8024 5.03349 15.5663C3.31661 12.2359 1.29193 8.26132 1.29193 6.30986C1.29193 2.82516 4.11831 0 7.60179 0ZM7.60179 2.8334C6.91397 2.8334 6.24159 3.03736 5.66969 3.41949C5.09779 3.80162 4.65204 4.34476 4.38883 4.98023C4.12561 5.61569 4.05674 6.31494 4.19093 6.98954C4.32511 7.66414 4.65633 8.28381 5.14269 8.77017C5.62906 9.25653 6.24872 9.58775 6.92332 9.72194C7.59793 9.85612 8.29717 9.78725 8.93264 9.52404C9.5681 9.26082 10.1112 8.81508 10.4934 8.24317C10.8755 7.67127 11.0795 6.9989 11.0795 6.31108C11.0795 5.38874 10.7131 4.50418 10.0609 3.85199C9.40869 3.19979 8.52413 2.8334 7.60179 2.8334Z" fill="#FBBC04"/>
</svg>
